<?xml version="1.0" standalone="no"?>
<!DOCTYPE svg PUBLIC "-//W3C//DTD SVG 20010904//EN"
 "http://www.w3.org/TR/2001/REC-SVG-20010904/DTD/svg10.dtd">
<svg version="1.0" xmlns="http://www.w3.org/2000/svg"
 width="3840.000000pt" height="3840.000000pt" viewBox="0 0 3840.000000 3840.000000"
 preserveAspectRatio="xMidYMid meet">
<metadata>
Created by potrace 1.14, written by Peter Selinger 2001-2017
</metadata>
<g transform="translate(0.000000,3840.000000) scale(0.100000,-0.100000)"
fill="#000000" stroke="none">
<path d="M13490 20146 c0 -6230 3 -9377 10 -9381 6 -4 7 -13 1 -24 -10 -19
-10 -39 2 -57 3 -6 4 -14 0 -18 -11 -11 -12 -56 -1 -56 7 0 6 -5 -1 -14 -13
-16 -11 -37 4 -48 6 -5 5 -8 -2 -8 -7 0 -13 -5 -13 -11 0 -5 6 -7 13 -3 7 5 7
1 -2 -10 -9 -10 -11 -20 -5 -24 6 -4 9 -319 9 -837 l0 -830 67 -1 c37 0 97 3
134 7 37 5 94 11 128 13 34 3 61 6 61 6 0 1 20 4 45 6 82 6 154 14 250 25 52
6 113 13 135 15 22 2 58 6 80 8 22 2 69 7 105 11 36 4 110 12 165 19 55 6 115
12 133 11 17 0 32 2 32 5 0 4 20 5 45 4 25 -1 45 1 45 5 0 3 16 6 36 6 20 -1
62 2 93 6 57 8 163 19 236 23 22 2 40 4 40 5 0 2 32 4 70 6 39 2 115 9 170 15
96 10 167 16 320 26 39 3 90 7 115 9 25 2 90 6 145 9 55 3 120 8 145 11 25 3
95 8 155 11 61 3 139 7 175 10 36 3 95 5 133 6 37 1 67 4 67 7 0 3 18 5 40 5
22 -1 91 2 152 7 62 5 161 11 219 12 58 2 110 6 115 8 5 3 48 5 96 4 85 -2 87
-1 97 24 18 47 23 131 26 406 1 149 5 277 9 283 4 7 1 12 -6 12 -8 0 -9 3 -3
8 7 5 11 304 10 937 -1 555 3 935 8 943 5 6 6 12 1 12 -8 0 -9 208 -1 258 3
12 -1 22 -7 22 -7 0 -8 3 -1 8 7 5 11 720 12 2227 1 3607 1 3587 22 3540 10
-22 16 -43 14 -47 -2 -5 1 -8 7 -8 6 0 9 -4 6 -8 -2 -4 6 -33 18 -65 13 -31
21 -59 18 -62 -3 -3 1 -5 8 -5 7 0 11 -3 7 -6 -3 -4 3 -29 14 -58 11 -28 22
-58 24 -66 2 -8 4 -15 5 -15 1 0 3 -7 5 -15 11 -42 58 -166 67 -177 6 -7 8
-13 4 -13 -4 0 0 -13 9 -30 9 -16 13 -30 11 -30 -3 0 3 -20 14 -45 11 -25 17
-45 13 -45 -3 0 0 -6 6 -13 6 -8 8 -17 4 -20 -3 -4 -2 -7 3 -7 5 0 10 -8 11
-17 1 -10 10 -36 19 -58 10 -22 17 -46 15 -52 -1 -7 4 -13 10 -13 7 0 10 -3 6
-6 -3 -3 3 -29 15 -58 11 -28 22 -59 23 -69 2 -10 11 -32 19 -49 9 -16 18 -45
22 -64 3 -19 11 -34 17 -34 6 0 8 -3 4 -6 -3 -3 3 -29 15 -58 11 -28 22 -58
23 -66 2 -8 23 -67 45 -130 23 -63 42 -121 43 -127 0 -7 4 -13 9 -13 5 0 7 -4
4 -8 -2 -4 1 -21 9 -37 22 -50 28 -69 26 -82 -1 -7 3 -13 9 -13 6 0 9 -4 6 -8
-2 -4 4 -27 14 -50 11 -23 16 -42 13 -42 -3 0 0 -6 6 -13 6 -8 8 -17 4 -20 -3
-4 -1 -7 5 -7 7 0 11 -3 10 -7 -4 -13 36 -127 47 -135 5 -4 7 -8 3 -8 -5 0 1
-24 13 -52 11 -29 22 -64 25 -78 3 -14 12 -35 20 -47 8 -13 12 -23 10 -23 -2
0 9 -37 26 -82 16 -46 31 -87 32 -93 2 -5 8 -23 15 -40 7 -16 15 -42 18 -57 3
-16 10 -28 15 -28 5 0 7 -4 3 -10 -3 -5 -1 -17 4 -27 15 -28 46 -117 43 -125
-1 -5 3 -8 10 -8 6 0 9 -3 5 -6 -5 -6 0 -24 29 -99 4 -11 8 -22 8 -25 1 -3 6
-18 13 -35 22 -59 26 -70 28 -77 2 -5 3 -9 4 -10 2 -2 5 -14 7 -28 2 -13 11
-35 19 -47 9 -13 13 -23 9 -23 -4 0 -1 -7 6 -15 7 -8 10 -15 6 -15 -5 0 14
-60 41 -130 4 -8 5 -18 5 -22 -1 -5 3 -8 8 -8 5 0 9 -3 8 -7 -1 -5 6 -33 17
-63 11 -30 19 -57 20 -60 0 -3 5 -18 12 -35 17 -45 26 -69 28 -75 1 -3 5 -12
8 -20 3 -8 17 -49 31 -90 14 -41 32 -93 42 -115 9 -22 18 -50 20 -63 3 -14 16
-52 30 -86 14 -33 27 -71 30 -82 2 -12 10 -34 18 -50 8 -15 13 -31 10 -36 -3
-4 0 -8 5 -8 6 0 10 -3 9 -7 -2 -12 13 -63 30 -103 9 -19 15 -41 13 -47 -1 -7
3 -13 9 -13 6 0 9 -4 6 -8 -3 -5 1 -20 8 -33 7 -14 17 -39 21 -55 4 -16 10
-33 11 -39 4 -13 61 -174 68 -192 3 -7 5 -14 4 -16 -1 -1 4 -13 11 -25 7 -13
15 -36 17 -50 3 -15 9 -31 14 -37 5 -7 11 -21 13 -33 2 -12 6 -25 10 -28 4 -4
7 -13 7 -19 0 -7 8 -30 17 -51 9 -22 16 -45 14 -51 -1 -7 4 -13 10 -13 7 0 10
-3 7 -6 -3 -3 3 -29 14 -57 11 -29 20 -58 21 -64 0 -7 4 -13 9 -13 5 0 6 -4 3
-10 -3 -5 3 -27 15 -49 11 -22 20 -49 20 -61 0 -11 5 -20 11 -20 5 0 8 -4 5
-9 -3 -5 0 -24 8 -42 7 -19 17 -43 21 -54 5 -11 9 -23 10 -27 2 -5 3 -9 5 -10
1 -2 3 -10 5 -18 2 -8 20 -60 40 -115 20 -55 37 -106 37 -112 1 -7 5 -13 10
-13 5 0 7 -4 4 -8 -2 -4 6 -33 18 -65 13 -31 21 -59 18 -62 -3 -3 0 -5 7 -5 7
0 10 -4 7 -8 -2 -4 4 -27 15 -51 10 -24 19 -52 19 -62 0 -10 5 -19 11 -19 5 0
8 -4 5 -9 -3 -5 0 -24 8 -42 8 -19 15 -38 16 -44 1 -5 6 -18 12 -28 5 -10 11
-26 13 -35 3 -15 12 -42 41 -117 4 -11 8 -22 8 -25 1 -3 6 -18 13 -35 20 -54
26 -70 28 -80 2 -5 12 -32 23 -60 11 -27 20 -53 21 -57 3 -16 48 -145 76 -218
22 -59 28 -74 30 -90 2 -8 14 -43 28 -78 14 -34 26 -64 26 -65 0 -1 2 -9 5
-17 28 -79 37 -107 41 -122 2 -9 11 -30 19 -47 9 -17 16 -33 16 -36 0 -3 0 -6
1 -7 0 -2 2 -13 5 -26 2 -13 11 -36 19 -52 8 -16 15 -36 15 -45 0 -8 4 -23 9
-33 15 -27 46 -116 43 -124 -1 -5 3 -8 8 -8 5 0 9 -3 8 -7 -1 -5 4 -26 11 -48
18 -57 19 -59 17 -66 0 -3 5 -13 13 -22 7 -10 10 -17 7 -17 -4 0 0 -10 8 -22
9 -12 16 -32 16 -43 0 -12 5 -26 12 -33 7 -7 8 -12 4 -12 -5 0 -3 -7 4 -15 7
-8 9 -15 5 -15 -4 0 -3 -6 2 -12 6 -7 16 -31 22 -53 11 -35 28 -83 57 -160 4
-11 8 -24 10 -30 1 -5 12 -34 23 -62 12 -29 18 -53 15 -53 -4 0 -1 -6 5 -14
10 -12 41 -102 42 -123 0 -5 4 -12 9 -18 6 -9 31 -74 36 -97 1 -5 3 -11 4 -15
1 -5 2 -11 1 -16 0 -4 4 -7 9 -7 5 0 9 -3 8 -7 -3 -10 22 -85 32 -98 5 -5 9
-14 9 -20 3 -25 36 -121 44 -126 5 -3 8 -9 8 -13 -1 -3 -1 -7 0 -8 0 -2 2 -13
5 -26 2 -13 11 -36 19 -52 8 -16 15 -36 15 -44 0 -33 38 -53 100 -51 33 0 60
-2 60 -6 0 -3 28 -6 63 -7 82 0 294 -10 382 -17 39 -3 124 -8 190 -11 66 -4
154 -8 195 -10 41 -3 104 -6 140 -8 103 -6 229 -15 304 -22 38 -3 103 -8 145
-10 42 -1 76 -4 76 -5 0 -1 29 -3 65 -4 36 -2 65 -4 65 -5 0 -2 18 -4 165 -14
41 -3 104 -7 140 -11 36 -3 94 -8 130 -11 36 -3 83 -7 105 -9 22 -2 67 -6 100
-9 106 -9 179 -15 230 -21 28 -3 77 -8 110 -11 125 -11 140 -12 140 -14 0 0
28 -3 63 -5 35 -2 95 -8 135 -13 40 -6 79 -10 87 -10 14 0 70 -7 155 -18 22
-2 65 -7 95 -9 31 -3 100 -11 154 -19 53 -7 108 -12 122 -10 13 1 24 -1 24 -6
0 -4 12 -7 28 -8 15 0 29 -1 32 -1 3 -1 30 -4 60 -6 30 -3 87 -9 125 -14 39
-5 89 -8 113 -7 24 1 45 -1 47 -5 2 -3 14 -5 27 -3 13 1 28 3 34 3 6 1 12 7
13 14 1 6 3 298 4 647 1 422 5 637 12 642 6 5 5 8 -4 8 -10 0 -11 3 -2 14 14
16 11 47 -4 58 -6 5 -5 8 2 8 19 0 19 13100 1 13100 -10 0 -10 2 -2 8 13 8 14
225 2 238 -4 3 -3 14 2 24 9 18 9 38 -3 56 -3 6 -3 14 0 18 12 12 12 36 0 36
-8 0 -8 3 -2 8 14 10 14 92 1 92 -8 0 -8 3 -1 8 14 9 13 55 0 64 -7 5 -6 8 0
8 14 0 17 38 4 45 -5 4 -6 12 -2 18 12 19 12 36 1 43 -6 4 -5 10 3 15 11 7 11
9 -1 9 -13 0 -13 2 -1 9 13 8 13 12 0 27 -9 11 -9 15 -1 10 15 -9 16 6 0 22
-9 9 -9 12 1 12 10 0 11 3 2 14 -9 11 -9 15 1 18 10 4 10 8 -1 21 -10 13 -10
17 -1 17 10 0 10 3 0 15 -10 12 -10 15 1 15 9 0 10 3 4 8 -12 8 -13 22 -2 39
4 6 4 14 0 16 -5 3 -8 1186 -8 2629 l0 2623 -2032 0 -2033 0 -1 -1595 c-2
-1927 -8 -5522 -12 -6667 -1 -528 -6 -835 -12 -840 -6 -4 -7 -4 -3 0 3 5 -2
27 -12 50 -10 23 -16 45 -14 49 3 4 0 8 -6 8 -6 0 -8 5 -5 10 4 6 2 16 -3 23
-8 10 -32 73 -38 100 -1 4 -3 10 -4 15 -1 4 -2 10 -1 15 0 4 -3 7 -9 7 -6 0
-9 3 -8 8 3 12 -36 126 -45 133 -5 3 -8 10 -8 15 1 14 -31 108 -42 122 -5 6
-7 12 -3 12 3 0 1 12 -5 28 -35 89 -69 189 -69 205 0 9 -4 17 -8 17 -8 0 -47
119 -44 133 1 4 -2 7 -8 7 -6 0 -9 3 -8 8 3 10 -23 85 -32 96 -5 5 -6 15 -3
22 3 8 1 14 -4 14 -5 0 -10 6 -11 13 0 9 -48 149 -77 225 -2 7 -5 14 -5 17 -1
3 -12 35 -26 72 -14 38 -32 86 -39 108 -7 22 -30 85 -50 140 -19 55 -37 107
-40 115 -4 17 -72 207 -82 230 -3 8 -7 20 -9 25 -3 12 -73 213 -81 235 -4 8
-5 18 -5 23 1 4 -2 7 -8 7 -6 0 -9 3 -8 8 3 16 -25 102 -34 102 -5 0 -8 6 -7
13 1 6 -1 21 -5 32 -4 11 -12 31 -16 45 -4 14 -11 34 -16 45 -4 11 -8 27 -10
35 -2 9 -11 34 -20 55 -10 22 -18 42 -19 45 0 3 -4 11 -8 18 -5 6 -6 12 -3 12
3 0 -5 25 -19 55 -13 30 -21 55 -18 55 3 0 0 7 -7 15 -7 8 -10 15 -6 15 3 0
-3 21 -13 48 -22 57 -28 74 -31 87 -2 10 -29 81 -45 120 -5 11 -9 22 -9 25
-11 48 -31 100 -38 100 -6 0 -8 7 -4 15 3 8 0 15 -6 15 -6 0 -9 3 -5 6 3 3 -3
26 -13 50 -11 24 -18 44 -15 44 2 0 -8 28 -22 63 -13 34 -26 69 -28 77 -2 8
-4 15 -5 15 -1 0 -3 9 -5 20 -2 10 -9 28 -14 40 -14 26 -62 166 -63 183 -1 6
-6 12 -11 12 -5 0 -7 7 -4 15 4 8 3 16 -1 19 -5 3 -14 28 -22 55 -7 28 -17 51
-21 51 -5 0 -6 7 -3 15 4 8 1 15 -6 15 -6 0 -9 4 -6 8 3 5 -2 21 -10 36 -7 16
-14 37 -14 47 0 11 -5 19 -11 19 -6 0 -9 7 -5 15 3 8 1 15 -5 15 -6 0 -8 4 -5
8 3 5 -2 21 -10 36 -8 16 -16 38 -18 50 -3 11 -21 66 -41 121 -20 55 -45 127
-56 160 -11 33 -24 68 -29 77 -6 10 -10 27 -10 38 0 11 -5 20 -11 20 -6 0 -9
7 -5 15 3 8 1 15 -4 15 -6 0 -9 3 -8 8 3 13 -26 97 -37 104 -5 4 -6 8 -1 8 5
0 3 7 -4 15 -7 8 -9 15 -5 15 4 0 3 6 -2 13 -9 10 -18 38 -28 82 -2 6 -14 39
-28 75 -38 101 -61 164 -63 179 -2 7 -13 38 -25 68 -12 31 -22 62 -22 69 0 8
-4 14 -8 14 -4 0 -10 16 -13 35 -4 19 -13 46 -21 61 -8 15 -12 31 -9 36 3 4 0
8 -7 8 -7 0 -10 3 -7 6 3 3 -4 32 -17 65 -13 32 -21 59 -18 59 3 0 0 7 -7 15
-7 8 -9 15 -5 15 4 0 3 6 -2 13 -12 14 -38 89 -35 100 1 4 -2 7 -6 7 -5 0 -9
6 -9 13 -1 6 -17 57 -37 112 -20 55 -38 107 -40 115 -2 8 -14 42 -27 75 -13
33 -22 66 -21 73 2 6 -1 12 -6 12 -5 0 -9 6 -9 13 0 6 -10 36 -22 65 -11 28
-17 52 -13 52 4 0 2 4 -3 8 -6 4 -21 42 -35 85 -13 42 -28 77 -33 77 -6 0 -8
3 -4 6 3 3 -1 25 -10 47 -8 23 -16 51 -19 61 -2 11 -9 23 -15 26 -6 4 -10 9
-8 11 5 8 -23 109 -30 109 -4 0 -8 6 -8 13 0 6 -19 62 -41 124 -22 61 -38 114
-34 117 3 3 0 6 -7 6 -7 0 -9 5 -6 10 3 6 1 10 -6 10 -7 0 -10 3 -6 6 3 4 -1
23 -9 43 -9 20 -18 47 -20 60 -3 13 -11 35 -18 50 -8 14 -17 41 -21 59 -3 17
-11 32 -15 32 -5 0 -7 7 -4 15 4 8 1 15 -7 15 -7 0 -10 3 -6 6 5 5 -10 58 -30
104 -3 8 -7 20 -9 25 -1 6 -19 55 -39 110 -20 55 -38 107 -40 115 -2 8 -15 45
-29 82 -13 36 -22 69 -18 72 3 3 -1 6 -8 6 -7 0 -11 3 -8 6 4 3 -6 36 -21 72
-15 37 -31 79 -34 94 -4 15 -12 40 -19 55 -6 15 -12 31 -13 36 -2 4 -3 8 -5
10 -1 1 -3 9 -5 17 -9 38 -81 236 -88 241 -5 3 -8 9 -8 13 2 11 -12 61 -23 81
-5 11 -11 23 -12 28 -1 4 -3 9 -4 12 -1 3 -4 10 -5 15 -1 6 -3 11 -4 13 -2 1
-4 12 -7 25 -2 13 -11 36 -19 51 -8 16 -11 31 -8 35 4 3 0 6 -7 6 -7 0 -11 3
-7 6 6 6 -29 111 -44 130 -5 6 -6 13 -3 16 3 4 -4 24 -16 47 -11 23 -18 41
-14 41 4 0 1 6 -5 13 -6 8 -8 17 -4 20 3 4 1 7 -6 7 -7 0 -10 4 -6 9 3 5 -1
25 -10 43 -8 18 -31 81 -52 141 l-37 107 -2043 0 -2043 0 0 -9374z"/>
</g>
</svg>
